<?xml version="1.0" standalone="no"?>
<!DOCTYPE svg PUBLIC "-//W3C//DTD SVG 20010904//EN"
 "http://www.w3.org/TR/2001/REC-SVG-20010904/DTD/svg10.dtd">
<svg version="1.0" xmlns="http://www.w3.org/2000/svg"
 width="700.000000pt" height="590.000000pt" viewBox="0 0 700.000000 590.000000"
 preserveAspectRatio="xMidYMid meet">
<metadata>
Created by potrace 1.14, written by Peter Selinger 2001-2017
</metadata>
<g transform="translate(0.000000,590.000000) scale(0.100000,-0.100000)"
fill="#000000" stroke="none">
<path d="M1713 5144 c-57 -21 -128 -86 -161 -148 l-27 -51 -3 -2134 c-2 -1979
-1 -2136 14 -2153 22 -23 66 -23 87 0 16 17 17 112 17 1165 l0 1147 610 0 610
0 0 -233 c0 -194 3 -236 16 -255 l15 -22 1264 0 1264 0 27 23 c20 18 28 34 31
73 l4 49 -285 459 -286 459 22 36 c12 20 141 227 285 460 279 450 282 456 248
520 -8 16 -22 32 -32 37 -10 5 -355 11 -768 14 l-750 5 -3 270 c-2 240 -4 271
-19 283 -13 9 -244 12 -1077 11 -910 0 -1067 -3 -1103 -15z m2087 -1079 l0
-975 -1080 0 -1080 0 0 904 c0 615 3 914 11 933 14 37 57 82 94 99 24 11 219
13 1042 14 l1013 0 0 -975z m1544 393 c-4 -7 -129 -209 -278 -448 -148 -239
-275 -446 -282 -459 -9 -16 -10 -31 -3 -49 5 -13 127 -214 271 -446 144 -231
270 -436 281 -453 l19 -33 -1186 0 -1186 0 2 198 3 197 449 3 c311 1 453 6
463 13 11 9 13 144 13 744 0 402 3 735 7 738 3 4 328 7 720 7 569 0 713 -3
707 -12z"/>
</g>
</svg>
